 <svg width="23" height="22" viewBox="0 0 23 22" fill="black" xmlns="http://www.w3.org/2000/svg">
                        <path d="M19.3096 0C20.2879 0.00121139 21.2262 0.39024 21.918 1.08203C22.6096 1.77386 22.9988 2.71213 23 3.69043V13.8359C22.9989 14.8144 22.6097 15.7525 21.918 16.4443C21.2261 17.1363 20.288 17.5261 19.3096 17.5273H10.4492L6.43262 21.334C6.31765 21.4654 6.16545 21.559 5.99609 21.6016C5.82674 21.6441 5.64785 21.6337 5.48438 21.5723C5.32114 21.5108 5.18038 21.4012 5.08105 21.2578C4.98165 21.1142 4.92867 20.9432 4.92871 20.7686L4.41309 17.5273H3.69043C2.71197 17.5261 1.77385 17.1363 1.08203 16.4443C0.390247 15.7525 0.00105979 14.8144 0 13.8359V3.69043C0.0011763 2.71213 0.390314 1.77386 1.08203 1.08203C1.77383 0.390232 2.71207 0.00121139 3.69043 0H19.3096ZM3.69043 1.7168C3.16761 1.71827 2.6663 1.92691 2.29688 2.29688C1.92771 2.6668 1.72045 3.16781 1.71973 3.69043V13.8359C1.72033 14.3593 1.92785 14.8613 2.29785 15.2314C2.66788 15.6016 3.16999 15.8098 3.69336 15.8105H5.27148C5.49909 15.8105 5.71794 15.9006 5.87891 16.0615C6.03984 16.2225 6.12988 16.4414 6.12988 16.6689L6.41602 19.0576L9.41504 16.1035C9.49564 16.0115 9.59464 15.9372 9.70605 15.8867C9.81764 15.8362 9.93907 15.8104 10.0615 15.8105H19.3096C19.833 15.8098 20.3351 15.6016 20.7051 15.2314C21.0751 14.8613 21.2826 14.3593 21.2832 13.8359V3.69043C21.2825 3.16735 21.0749 2.6659 20.7051 2.2959C20.3351 1.92576 19.833 1.71755 19.3096 1.7168H3.69043ZM10.9736 9.1543C12.1697 9.80535 12.9873 11.1192 12.9873 12.6348C12.987 12.8681 12.9668 13.1012 12.9268 13.3311H5.60938C5.56985 13.1012 5.55009 12.8681 5.5498 12.6348C5.5498 11.1238 6.36261 9.81352 7.55176 9.16016C8.02414 9.58008 8.63333 9.81166 9.26367 9.81055C9.894 9.80946 10.5027 9.57591 10.9736 9.1543ZM5.16797 7.60938C5.58973 7.9831 6.13334 8.18968 6.69629 8.18945C6.76484 8.18945 6.83321 8.18567 6.90039 8.17969C6.97786 8.38479 7.08192 8.57926 7.20898 8.75781C6.71861 9.02276 6.28921 9.3889 5.9502 9.83203C5.61134 10.275 5.37031 10.7849 5.24219 11.3281H3.42871C3.39334 11.123 3.37617 10.9152 3.37598 10.707C3.37598 9.36073 4.10298 8.19193 5.16797 7.60938ZM9.29688 5.26367C10.3869 5.26367 11.2713 6.14727 11.2715 7.2373C11.2715 8.32746 10.387 9.21191 9.29688 9.21191C8.2069 9.2117 7.32324 8.32733 7.32324 7.2373C7.32338 6.1474 8.20699 5.26388 9.29688 5.26367ZM16.5918 3.71875C16.7005 3.71875 16.8056 3.76138 16.8838 3.83691C16.9617 3.91242 17.007 4.01557 17.0107 4.12402V5.81934H18.7051C18.8135 5.82317 18.9168 5.86922 18.9922 5.94727C19.0675 6.02538 19.1094 6.12975 19.1094 6.23828C19.1094 6.34675 19.0675 6.45119 18.9922 6.5293C18.9168 6.60728 18.8135 6.65345 18.7051 6.65723H17.0107V8.34863C17.007 8.45706 16.9617 8.56025 16.8838 8.63574C16.8056 8.71126 16.7005 8.75391 16.5918 8.75391C16.4832 8.75384 16.3789 8.71121 16.3008 8.63574C16.2227 8.56023 16.1766 8.45717 16.1729 8.34863V6.65527H14.4795C14.3709 6.65155 14.268 6.6055 14.1924 6.52734C14.1169 6.44921 14.0742 6.34497 14.0742 6.23633C14.0742 6.12768 14.1169 6.02345 14.1924 5.94531C14.268 5.86716 14.3709 5.8211 14.4795 5.81738H16.1729V4.12402C16.1766 4.01546 16.2227 3.91244 16.3008 3.83691C16.3789 3.76144 16.4832 3.71881 16.5918 3.71875ZM6.64648 4.0625C6.95349 4.05659 7.25712 4.13158 7.52637 4.28027C7.79557 4.42897 8.02141 4.64626 8.18164 4.91016C7.68422 5.14089 7.27503 5.52869 7.01562 6.01465C6.75622 6.50051 6.66019 7.05821 6.74316 7.60352C6.7222 7.60449 6.70163 7.60739 6.68066 7.60742V7.60938C6.37365 7.60938 6.07108 7.52891 5.80469 7.375C5.53845 7.22119 5.31726 6.99924 5.16211 6.73242C5.00691 6.4654 4.92382 6.16195 4.9209 5.85254C4.918 5.5432 4.99542 5.23861 5.14551 4.96875C5.29562 4.69889 5.51298 4.47339 5.77637 4.31445C6.03971 4.15554 6.33961 4.06845 6.64648 4.0625Z" />
                    </svg>