 <svg width="20" height="20" viewBox="0 0 19 19" fill="black" xmlns="http://www.w3.org/2000/svg">
                    <path d="M4.89648 0.442261C6.22477 -0.036468 7.66305 -0.129147 9.04199 0.176636C10.4208 0.482456 11.6836 1.1733 12.6816 2.16785C13.9109 3.39515 14.6679 5.0133 14.8203 6.73914C14.9727 8.46496 14.51 10.1895 13.5146 11.6112C13.8121 11.6723 14.086 11.8176 14.3018 12.0302L18.5186 16.2245C18.7817 16.5223 18.921 16.9093 18.9082 17.3055C18.8953 17.7016 18.7309 18.078 18.4492 18.3583C18.1674 18.6386 17.7889 18.8016 17.3906 18.8143C16.9923 18.8271 16.604 18.6884 16.3047 18.4266L12.0879 14.2323C11.8739 14.0178 11.7272 13.746 11.666 13.4501C10.5062 14.2526 9.14014 14.7092 7.72852 14.7665C6.31697 14.8238 4.91793 14.48 3.69629 13.7743C2.47461 13.0685 1.48055 12.0301 0.831055 10.7821C0.181702 9.53425 -0.0955811 8.12792 0.0302734 6.72839C0.156225 5.32864 0.680975 3.99322 1.54297 2.87976C2.40495 1.76641 3.56827 0.920971 4.89648 0.442261ZM8.51172 1.98425C7.43661 1.77158 6.3223 1.88146 5.30957 2.29871C4.29688 2.71597 3.4313 3.42244 2.82227 4.32898C2.21321 5.23568 1.8877 6.30197 1.8877 7.39246C1.88772 8.4829 2.21324 9.54926 2.82227 10.4559C3.4313 11.3624 4.29694 12.069 5.30957 12.4862C6.32232 12.9034 7.4366 13.0124 8.51172 12.7997C9.58691 12.587 10.5744 12.062 11.3496 11.2909V11.2899C12.3872 10.2551 12.9697 8.85302 12.9697 7.39148C12.9696 5.9301 12.3871 4.5287 11.3496 3.49402C10.5744 2.72294 9.58692 2.19699 8.51172 1.98425Z" />
                </svg>