<svg width="32" height="24" viewBox="0 0 40 27" fill="black" xmlns="http://www.w3.org/2000/svg">
                    <path d="M35.7451 0.628906C35.9372 0.628906 36.1614 0.628619 36.3535 0.661133C36.6739 0.693692 36.9949 0.75941 37.2832 0.889648C37.9558 1.15014 38.5006 1.57357 38.917 2.12695C39.2052 2.48504 39.4295 2.90824 39.5576 3.39648C39.6216 3.62421 39.6857 3.81945 39.7178 4.01465V22.7041C39.6537 22.8994 39.6216 23.0948 39.5576 23.29C39.4295 23.7459 39.2053 24.2024 38.917 24.5605C38.5006 25.1139 37.9238 25.5374 37.2832 25.7979C36.9949 25.8955 36.6739 25.9928 36.3535 26.0254C36.1614 26.0579 35.9373 26.0576 35.7451 26.0576H7.80762C5.50113 26.0574 3.83496 24.3646 3.83496 22.0205V19.1875C3.83508 18.6341 4.12402 18.2113 4.60449 18.0811C5.30927 17.8858 5.91797 18.4068 5.91797 19.2207V22.0205C5.91797 23.1925 6.62249 23.9412 7.80762 23.9414H35.6807C36.5135 23.9414 37.155 23.5186 37.4434 22.835C37.5074 22.6071 37.5712 22.3463 37.5713 22.0859V4.60156C37.5713 4.30867 37.5394 4.08034 37.4434 3.85254C37.1871 3.16879 36.5457 2.74512 35.6807 2.74512H7.80762C6.6546 2.7453 5.91808 3.46163 5.91797 4.66602V7.4668C5.91777 8.28044 5.30908 8.80153 4.60449 8.60645C4.12394 8.47621 3.83498 8.05251 3.83496 7.49902V4.66602C3.83509 2.32202 5.50122 0.629121 7.80762 0.628906H35.7451ZM27.6074 17.8203C28.2801 17.8203 28.7606 18.276 28.7607 18.8945C28.7607 19.5457 28.3122 19.9697 27.6074 19.9697H20.0781C19.5338 19.9695 19.0857 19.546 19.0215 19.0254C18.9894 18.4719 19.3419 17.9828 19.8545 17.8525C19.9506 17.8201 20.0788 17.8203 20.1748 17.8203H27.6074ZM10.6592 9.32227C10.7233 9.32227 10.7877 9.35449 10.8838 9.35449C11.108 9.38706 11.2684 9.51727 11.3965 9.64746C11.5246 9.7777 11.6843 9.90882 11.8125 10.0391C11.8766 10.1367 11.9733 10.2344 12.0693 10.332C12.1652 10.4294 12.2293 10.4944 12.3252 10.5918C12.5815 10.8523 12.8064 11.081 13.0947 11.374L13.1582 11.4385C13.4786 11.7315 13.7675 12.0576 14.0879 12.3506C14.1518 12.4156 14.2154 12.4809 14.2793 12.5459C14.3434 12.6436 14.44 12.709 14.5361 12.8066C14.7282 13.0018 14.9202 13.1971 15.1123 13.4248C15.1764 13.5225 15.1769 13.6204 15.209 13.6855V13.75C15.209 13.7825 15.2412 13.7829 15.2412 13.8154V14.0107C15.2114 14.0107 15.2091 14.039 15.209 14.043C15.1769 14.2383 15.0803 14.4342 14.9521 14.5645C14.6639 14.8574 14.4074 15.1182 14.1191 15.4111L13.5752 15.9648C13.2869 16.2579 12.9983 16.5507 12.71 16.8438C12.5498 17.0065 12.3896 17.1693 12.2295 17.332C11.9732 17.5925 11.7163 17.8528 11.46 18.1133L11.4287 18.1455C11.3006 18.2757 11.1717 18.4066 10.9795 18.4717H10.9482C10.9481 18.5022 10.9193 18.5038 10.916 18.5039L10.8838 18.5371H10.499V18.5039C10.4673 18.5038 10.4671 18.4719 10.4355 18.4717C10.4039 18.4396 10.3719 18.4385 10.3711 18.4385C10.1149 18.3733 9.98673 18.1784 9.89062 18.0156C9.76253 17.7553 9.73045 17.495 9.8584 17.2021C9.89044 17.0719 9.98671 16.9733 10.0508 16.9082L10.083 16.876C10.147 16.8109 10.2114 16.7457 10.2754 16.6807C10.3072 16.6484 10.3069 16.6477 10.3389 16.6152C10.4349 16.5176 10.5309 16.4199 10.627 16.3223L10.6592 16.29C10.6911 16.2576 10.7549 16.1929 10.7871 16.1602L11.2363 15.7041C11.2683 15.6716 11.3001 15.6389 11.332 15.6064C11.3961 15.5414 11.4604 15.4762 11.5244 15.4111C11.5565 15.3786 11.6203 15.3128 11.6523 15.2803C11.6843 15.2478 11.7482 15.183 11.7803 15.1504C11.8443 15.0853 11.9086 15.0201 11.9727 14.9551C12.0047 14.9225 12.0373 14.89 12.0693 14.8574H0.887695C0.727657 14.8574 0.567768 14.8573 0.47168 14.7598C0.279453 14.597 0.118763 14.434 0.0546875 14.2061C-0.0733002 13.8481 0.0227193 13.4899 0.342773 13.2295C0.502962 13.0667 0.695846 13.002 0.952148 13.002H12.0693C12.0373 12.9694 11.9735 12.9037 11.9414 12.8711C11.8774 12.806 11.7809 12.7087 11.7168 12.6436C11.6207 12.5459 11.5561 12.4805 11.46 12.3828C11.364 12.2853 11.3001 12.2197 11.2041 12.1221C11.1081 12.057 11.0442 11.992 10.9482 11.8945C10.8842 11.8294 10.8512 11.7966 10.7871 11.7314C10.755 11.6988 10.6911 11.634 10.6592 11.6016C10.4029 11.3411 10.243 11.1452 10.0508 10.9824C9.79471 10.7221 9.69856 10.4621 9.73047 10.1367C9.76251 9.87624 9.89078 9.68038 10.083 9.51758C10.2431 9.38749 10.4351 9.32231 10.6592 9.32227ZM33.2783 12.1875C34.0471 12.1876 34.5272 12.8062 34.335 13.5225C34.2068 13.9457 33.9184 14.2064 33.502 14.2715C33.3739 14.3039 33.2139 14.3037 33.0859 14.3037H20.335C20.2068 14.3037 20.0783 14.304 19.9502 14.2715C19.3736 14.1738 18.9896 13.7175 19.0537 13.1641C19.0859 12.6108 19.5017 12.1877 20.0781 12.1875H33.2783ZM33.2783 6.52246C34.0471 6.5226 34.5272 7.14119 34.335 7.85742C34.2068 8.28048 33.9183 8.54135 33.502 8.60645C33.3739 8.63888 33.2139 8.63867 33.0859 8.63867H20.335C20.2068 8.63867 20.0783 8.639 19.9502 8.60645C19.3736 8.50873 18.9896 8.01995 19.0537 7.49902C19.0857 6.94564 19.5016 6.52265 20.0781 6.52246H33.2783Z"></path>
                </svg>